<svg xmlns="http://www.w3.org/2000/svg" fill="none" viewBox="0 0 48 48">
  <!-- Back Tag (Lighter/Secondary Color) -->
  <path fill="#A5B4FC" d="M36 10H14a3 3 0 0 0-3 3v20a3 3 0 0 0 3 3h22a3 3 0 0 0 3-3V13a3 3 0 0 0-3-3Z" opacity="0.6"/>
  
  <!-- Front Tag (Primary Color) -->
  <path fill="#6366F1" d="M32 16H10a3 3 0 0 0-3 3v20a3 3 0 0 0 3 3h22a3 3 0 0 0 3-3V19a3 3 0 0 0-3-3Z"/>
  
  <!-- Front Tag Detail (Hole) -->
  <circle cx="14" cy="20" r="2" fill="#FFFFFF"/>
  
  <!-- Front Tag Detail (Percent Symbol) -->
  <circle cx="21" cy="26" r="2.5" fill="#FFFFFF"/>
  <circle cx="29" cy="34" r="2.5" fill="#FFFFFF"/>
  <path stroke="#FFFFFF" stroke-width="2.5" stroke-linecap="round" d="M29 24 21 36"/>
  
  <!-- Sparkle/Star Accent (Top Right) -->
  <path fill="#FFFFFF" d="M40 6l1.5 3 3 1.5-3 1.5-1.5 3-1.5-3-3-1.5 3-1.5 1.5-3Z"/>
  
  <!-- Bottom Shadow/Accent for Front Tag -->
  <path fill="#FFFFFF" d="M10 42h22a3 3 0 0 0 3-3v2a3 3 0 0 1-3 3H10a3 3 0 0 1-3-3v-2a3 3 0 0 0 3 3Z" opacity="0.3"/>
</svg>
